<svg width="1440" height="1024" viewBox="0 0 1440 1024" fill="none" xmlns="http://www.w3.org/2000/svg">
<rect width="1440" height="1024" fill="#F9F9F9"/>
<g filter="url(#filter0_d_6_30)">
<path d="M663 38C663 17.0132 680.013 0 701 0H1440V1024H701C680.013 1024 663 1006.99 663 986V38Z" fill="#0A1B58"/>
</g>
<g filter="url(#filter1_d_6_30)">
<path d="M64 292.5C64 414 -6.83333 519.833 -31.5 510H-69.5V-3.5H269.5C136.5 -3.5 64 69.7715 64 292.5Z" fill="#0A1B58"/>
</g>
<g filter="url(#filter2_i_6_30)">
<path d="M1347.5 761.135C1347.5 639.635 1418.33 533.802 1443 543.635L1481 543.635L1481 1057.13L1142 1057.13C1275 1057.13 1347.5 983.863 1347.5 761.135Z" fill="#F9F9F9"/>
</g>
<defs>
<filter id="filter0_d_6_30" x="638" y="-16" width="817" height="1064" filterUnits="userSpaceOnUse" color-interpolation-filters="sRGB">
<feFlood flood-opacity="0" result="BackgroundImageFix"/>
<feColorMatrix in="SourceAlpha" type="matrix" values="0 0 0 0 0 0 0 0 0 0 0 0 0 0 0 0 0 0 127 0" result="hardAlpha"/>
<feOffset dx="-5" dy="4"/>
<feGaussianBlur stdDeviation="10"/>
<feComposite in2="hardAlpha" operator="out"/>
<feColorMatrix type="matrix" values="0 0 0 0 0 0 0 0 0 0 0 0 0 0 0 0 0 0 0.25 0"/>
<feBlend mode="normal" in2="BackgroundImageFix" result="effect1_dropShadow_6_30"/>
<feBlend mode="normal" in="SourceGraphic" in2="effect1_dropShadow_6_30" result="shape"/>
</filter>
<filter id="filter1_d_6_30" x="-75.5" y="-9.5" width="359" height="534.135" filterUnits="userSpaceOnUse" color-interpolation-filters="sRGB">
<feFlood flood-opacity="0" result="BackgroundImageFix"/>
<feColorMatrix in="SourceAlpha" type="matrix" values="0 0 0 0 0 0 0 0 0 0 0 0 0 0 0 0 0 0 127 0" result="hardAlpha"/>
<feOffset dx="4" dy="4"/>
<feGaussianBlur stdDeviation="5"/>
<feComposite in2="hardAlpha" operator="out"/>
<feColorMatrix type="matrix" values="0 0 0 0 0 0 0 0 0 0 0 0 0 0 0 0 0 0 0.25 0"/>
<feBlend mode="normal" in2="BackgroundImageFix" result="effect1_dropShadow_6_30"/>
<feBlend mode="normal" in="SourceGraphic" in2="effect1_dropShadow_6_30" result="shape"/>
</filter>
<filter id="filter2_i_6_30" x="1142" y="543" width="340" height="521.135" filterUnits="userSpaceOnUse" color-interpolation-filters="sRGB">
<feFlood flood-opacity="0" result="BackgroundImageFix"/>
<feBlend mode="normal" in="SourceGraphic" in2="BackgroundImageFix" result="shape"/>
<feColorMatrix in="SourceAlpha" type="matrix" values="0 0 0 0 0 0 0 0 0 0 0 0 0 0 0 0 0 0 127 0" result="hardAlpha"/>
<feOffset dx="1" dy="7"/>
<feGaussianBlur stdDeviation="9"/>
<feComposite in2="hardAlpha" operator="arithmetic" k2="-1" k3="1"/>
<feColorMatrix type="matrix" values="0 0 0 0 0 0 0 0 0 0 0 0 0 0 0 0 0 0 0.33 0"/>
<feBlend mode="normal" in2="shape" result="effect1_innerShadow_6_30"/>
</filter>
</defs>
</svg>
